<svg id="Layer_1" data-name="Layer 1" xmlns="http://www.w3.org/2000/svg" viewBox="0 0 256.5 256.5"><defs><style>.cls-1{fill:#f7931e;stroke-width:0.5px;}.cls-1,.cls-2{stroke:#000;stroke-miterlimit:10;}.cls-2{fill:none;stroke-width:10px;}.cls-3{font-size:36px;fill:#ff0;font-family:NexaBold, Nexa Bold;}.cls-4{letter-spacing:0.02em;}</style></defs><rect class="cls-1" x="0.25" y="0.25" width="256" height="256" rx="9.52"/><path d="M88.7,192.09A18.51,18.51,0,1,1,70.59,210.6,18.33,18.33,0,0,1,88.7,192.09m0-10a28.51,28.51,0,1,0,28.11,28.51A28.31,28.31,0,0,0,88.7,182.09Z" transform="translate(-0.01 0.22)"/><path d="M167.89,169.13a18.51,18.51,0,1,1-18.11,18.5,18.33,18.33,0,0,1,18.11-18.5m0-10A28.51,28.51,0,1,0,196,187.63a28.3,28.3,0,0,0-28.11-28.5Z" transform="translate(-0.01 0.22)"/><line class="cls-2" x1="111.27" y1="203.69" x2="111.27" y2="73.83"/><polyline class="cls-2" points="111.66 77.52 188.87 42.95 188.87 175.98"/><text class="cls-3" transform="translate(32.73 137.06)">BURRAAHH <tspan x="0" y="43.2" xml:space="preserve">     EFFE</tspan><tspan class="cls-4" x="124.05" y="43.2">C</tspan><tspan x="148.57" y="43.2">T</tspan></text></svg>