<svg id="Layer_1" data-name="Layer 1" xmlns="http://www.w3.org/2000/svg" viewBox="0 0 256.5 256.5"><defs><style>.cls-1{fill:#f7931e;}.cls-1,.cls-2,.cls-3,.cls-4{stroke:#000;stroke-miterlimit:10;stroke-width:0.5px;}.cls-2{fill:none;}.cls-3{fill:#8c6239;}.cls-4{fill:#603813;}</style></defs><rect class="cls-1" x="0.25" y="0.25" width="256" height="256" rx="9.52"/><line class="cls-2" x1="63.49" y1="71.72" x2="199.47" y2="71.72"/><line class="cls-2" x1="65.26" y1="176.61" x2="201.23" y2="176.61"/><line class="cls-2" x1="63.49" y1="71.72" x2="87.94" y2="114.5"/><line class="cls-2" x1="199.19" y1="72.58" x2="174.55" y2="115.25"/><line class="cls-2" x1="174.65" y1="133.64" x2="200.99" y2="175.61"/><line class="cls-2" x1="88.41" y1="133.27" x2="65.33" y2="176.79"/><line class="cls-2" x1="77.71" y1="72.19" x2="102.15" y2="114.97"/><line class="cls-2" x1="187.25" y1="72.25" x2="162.61" y2="114.92"/><line class="cls-2" x1="93.71" y1="72.19" x2="118.15" y2="114.97"/><line class="cls-2" x1="169.25" y1="72.25" x2="144.61" y2="114.92"/><line class="cls-2" x1="110.71" y1="72.19" x2="135.15" y2="114.97"/><line class="cls-2" x1="152.25" y1="72.25" x2="127.61" y2="114.92"/><line class="cls-2" x1="102.47" y1="134.82" x2="79.39" y2="178.35"/><line class="cls-2" x1="158.76" y1="133.6" x2="185.1" y2="175.57"/><line class="cls-2" x1="115.47" y1="134.82" x2="92.39" y2="178.35"/><line class="cls-2" x1="144.76" y1="133.6" x2="171.1" y2="175.57"/><line class="cls-2" x1="132.47" y1="133.82" x2="109.39" y2="177.35"/><line class="cls-2" x1="130.76" y1="134.6" x2="157.1" y2="176.57"/><rect class="cls-3" x="87.94" y="114.5" width="87.08" height="19.86"/><rect class="cls-4" x="63.49" y="68.72" width="136" height="5"/><rect class="cls-4" x="65.49" y="175.72" width="136" height="5"/></svg>