<svg id="Layer_1" data-name="Layer 1" xmlns="http://www.w3.org/2000/svg" viewBox="0 0 256.5 256.5"><defs><style>.cls-1{fill:#f7931e;}.cls-1,.cls-2,.cls-3{stroke:#000;stroke-miterlimit:10;stroke-width:0.5px;}.cls-2{fill:#a67c52;}</style></defs><rect class="cls-1" x="0.25" y="0.25" width="256" height="256" rx="9.52"/><path class="cls-2" d="M15.87,122.64H245.25a1.74,1.74,0,0,1,1.74,1.74v19.21a1.64,1.64,0,0,1-1.64,1.64H15.48a1.54,1.54,0,0,1-1.54-1.54V124.57a1.94,1.94,0,0,1,1.94-1.94Z" transform="translate(-50.31 86.4) rotate(-30.95)"/><ellipse class="cls-3" cx="193.18" cy="96.32" rx="8.92" ry="5.35" transform="translate(-22.04 113.3) rotate(-30.95)"/><ellipse class="cls-3" cx="124.98" cy="137.5" rx="6.54" ry="3.92" transform="translate(-52.93 84.09) rotate(-30.95)"/><ellipse class="cls-3" cx="108.34" cy="147.9" rx="7.13" ry="4.76" transform="translate(-60.65 77.01) rotate(-30.95)"/><ellipse class="cls-3" cx="89.17" cy="158.7" rx="7.73" ry="5.35" transform="matrix(0.86, -0.51, 0.51, 0.86, -68.93, 68.69)"/><ellipse class="cls-3" cx="72.11" cy="168.97" rx="6.54" ry="3.92" transform="translate(-76.65 61.38) rotate(-30.95)"/><ellipse class="cls-3" cx="54.5" cy="179.49" rx="7.73" ry="5.35" transform="translate(-84.57 53.82) rotate(-30.95)"/></svg>