<svg id="Layer_1" data-name="Layer 1" xmlns="http://www.w3.org/2000/svg" viewBox="0 0 256.5 256.5"><defs><style>.cls-1{fill:#f7931e;}.cls-1,.cls-2,.cls-3{stroke:#000;stroke-miterlimit:10;stroke-width:0.5px;}.cls-2{fill:#f2f2f2;}</style></defs><rect class="cls-1" x="0.25" y="0.25" width="256" height="256" rx="9.52"/><path class="cls-2" d="M37.25,68.25h36a0,0,0,0,1,0,0V171.82a6.43,6.43,0,0,1-6.43,6.43H43.77a6.52,6.52,0,0,1-6.52-6.52V68.25A0,0,0,0,1,37.25,68.25Z"/><path class="cls-2" d="M73.25,68.25h36a0,0,0,0,1,0,0V171.82a6.43,6.43,0,0,1-6.43,6.43H79.77a6.52,6.52,0,0,1-6.52-6.52V68.25A0,0,0,0,1,73.25,68.25Z"/><path class="cls-2" d="M109.25,68.25h36a0,0,0,0,1,0,0V171.82a6.43,6.43,0,0,1-6.43,6.43H115.77a6.52,6.52,0,0,1-6.52-6.52V68.25A0,0,0,0,1,109.25,68.25Z"/><path class="cls-2" d="M145.25,68.25h36a0,0,0,0,1,0,0V171.82a6.43,6.43,0,0,1-6.43,6.43H151.77a6.52,6.52,0,0,1-6.52-6.52V68.25A0,0,0,0,1,145.25,68.25Z"/><path class="cls-2" d="M181.25,68.25h36a0,0,0,0,1,0,0V171.82a6.43,6.43,0,0,1-6.43,6.43H187.77a6.52,6.52,0,0,1-6.52-6.52V68.25A0,0,0,0,1,181.25,68.25Z"/><path class="cls-3" d="M174.25,68.25h18a0,0,0,0,1,0,0v52.57a6.43,6.43,0,0,1-6.43,6.43h-5.05a6.52,6.52,0,0,1-6.52-6.52V68.25A0,0,0,0,1,174.25,68.25Z"/><path class="cls-3" d="M136.25,68.25h18a0,0,0,0,1,0,0v52.57a6.43,6.43,0,0,1-6.43,6.43h-5.05a6.52,6.52,0,0,1-6.52-6.52V68.25A0,0,0,0,1,136.25,68.25Z"/><path class="cls-3" d="M102.25,68.25h18a0,0,0,0,1,0,0v52.57a6.43,6.43,0,0,1-6.43,6.43h-5.05a6.52,6.52,0,0,1-6.52-6.52V68.25A0,0,0,0,1,102.25,68.25Z"/><path class="cls-3" d="M64.25,68.25h18a0,0,0,0,1,0,0v52.57a6.43,6.43,0,0,1-6.43,6.43H70.77a6.52,6.52,0,0,1-6.52-6.52V68.25A0,0,0,0,1,64.25,68.25Z"/><rect class="cls-3" x="37.25" y="57.25" width="180" height="11"/></svg>