<svg id="Layer_1" data-name="Layer 1" xmlns="http://www.w3.org/2000/svg" viewBox="0 0 256.5 256.5"><defs><style>.cls-1{fill:#f7931e;}.cls-1,.cls-2,.cls-3,.cls-4,.cls-5{stroke:#000;stroke-miterlimit:10;stroke-width:0.5px;}.cls-2{fill:gray;}.cls-3{fill:#c69c6d;}.cls-5{fill:none;}</style></defs><rect class="cls-1" x="0.25" y="0.25" width="256" height="256" rx="9.52"/><polyline class="cls-2" points="137.93 102.99 143.07 145.41 140.5 169.83 105.8 185.25 56.96 183.97 38.96 165.97 31.25 129.98 49.24 91.42"/><ellipse class="cls-3" cx="92.77" cy="94.88" rx="21.21" ry="46.85" transform="matrix(0.09, -1, 1, 0.09, -8.93, 178.98)"/><ellipse class="cls-4" cx="91.55" cy="94.24" rx="7.71" ry="14.78" transform="translate(-13.69 171.63) rotate(-82.05)"/><line class="cls-5" x1="64.67" y1="109.42" x2="62.1" y2="183.96"/><line class="cls-5" x1="89.09" y1="115.84" x2="87.8" y2="185.25"/><line class="cls-5" x1="108.37" y1="115.84" x2="108.37" y2="185.25"/><line class="cls-5" x1="127.65" y1="111.99" x2="128.94" y2="174.97"/><line class="cls-5" x1="53.1" y1="102.99" x2="47.96" y2="174.97"/><rect class="cls-2" x="160.27" y="109.22" width="57.69" height="62.98" rx="2.39" transform="translate(-27.38 48.98) rotate(-13.81)"/><ellipse class="cls-3" cx="179.37" cy="101.37" rx="31.66" ry="26.04" transform="translate(-14.95 34.8) rotate(-10.69)"/><line class="cls-5" x1="163.64" y1="124.84" x2="177.78" y2="176.25"/><line class="cls-5" x1="176.49" y1="127.41" x2="188.06" y2="173.68"/><line class="cls-5" x1="186.78" y1="126.12" x2="199.63" y2="171.11"/><line class="cls-5" x1="198.34" y1="120.98" x2="211.2" y2="167.26"/><line class="cls-5" x1="206.06" y1="114.56" x2="220.19" y2="165.97"/><ellipse class="cls-4" cx="177.8" cy="99.91" rx="8.32" ry="8.29" transform="translate(-23.63 72.87) rotate(-21.79)"/></svg>