<svg id="Layer_1" data-name="Layer 1" xmlns="http://www.w3.org/2000/svg" viewBox="0 0 792.5 739.07"><defs><style>.cls-1{fill:red;}.cls-1,.cls-2,.cls-3,.cls-4{stroke:#000;stroke-miterlimit:10;}.cls-2{fill:#fff;}.cls-4{fill:#f2f2f2;}</style></defs><path class="cls-1" d="M305.22,265.59c6-3.2,13.91-6.2,20.68-6.12,14.31.18,27,5,39.63,18.35.36.09,5.35-3.16,5.68-3.35l33.36-18.74a1.53,1.53,0,0,0,.72-1.09l7.5-42.41a1.6,1.6,0,0,1,.61-1l73.29-52.43a1.15,1.15,0,0,1,.68-.22h33.85a1.16,1.16,0,0,1,.42.08l37.34,15a1.36,1.36,0,0,1,.64.55l54.31,88.35a1.64,1.64,0,0,1-.8,2.44L576,273.69a1,1,0,0,0-.44.2L538,301.49a1.73,1.73,0,0,0-.44,2.09l43.16,90.12a1.61,1.61,0,0,0,.4.52L643,444.31a1.7,1.7,0,0,1,.5,1.78l-27.88,97a1.45,1.45,0,0,1-.9,1l-33.14,10.78a1.44,1.44,0,0,0-.88,1l-10.11,31.87q.4,12.3.8,24.61h0a1.82,1.82,0,0,0,1.66,1.89h11.61a1.49,1.49,0,0,0,1.31-1.73l-2.4-25.23a1.81,1.81,0,0,1,.21-1l9.39-16.66c.72-1.28,2.41-.68,2.41.86v42.23a1.45,1.45,0,0,0,1.31,1.56h6.56a1.41,1.41,0,0,0,1.3-1.36l3-27.83a1.29,1.29,0,0,1,2.55-.32l8.48,28.47a1.35,1.35,0,0,0,1.24,1h11.63a1.55,1.55,0,0,0,1.22-2.14L622,580.31a1.59,1.59,0,0,1,1-2.12l52.37-9.84a1.24,1.24,0,0,1,.54,0l47,14.17.15.06,68,31.17a1.58,1.58,0,0,1,.84,1.45v61.28a1.45,1.45,0,0,1-1.31,1.56H314.59a1.5,1.5,0,0,1-1.28-1.88l7.42-41.64,18.88-98.5a1.74,1.74,0,0,0,0-.72L313,409.71a1.53,1.53,0,0,0-.12-.38l-34.15-72.92a1.71,1.71,0,0,1-.13-1.05l9.27-54.85a1.91,1.91,0,0,1,.19-.6,2,2,0,0,1,.34-.49C292,273.05,294.91,271.05,305.22,265.59Z"/><polyline class="cls-2" points="283.5 137.57 291.5 179.57 323.5 229.57 345.5 245.57 380.5 241.57 405.5 194.57 418.5 172.09"/><polygon class="cls-3" points="351.5 93.57 254.5 155.57 254.5 101.62 227.5 69.57 246.5 25.57 283.5 6.64 405.5 0.51 418.5 21.57 418.5 51.58 405.5 73.03 351.5 93.57"/><ellipse class="cls-2" cx="434.5" cy="98.57" rx="36" ry="39"/><circle class="cls-3" cx="434.5" cy="98.57" r="16"/><polyline class="cls-2" points="345.45 186.98 329.69 192.08 327.2 156.17 327.2 137.57"/><polygon class="cls-4" points="349.51 136.78 369.48 124.38 370.95 110.96 345.58 121.76 349.51 136.78"/><polygon class="cls-4" points="311.87 149.54 292.48 157.42 289.91 144.67 309.09 135.72 311.87 149.54"/><polyline class="cls-2" points="340.42 533.92 261.5 609.57 186.5 633.57 200.5 652.57 209.5 645.57 233.5 646 249.5 635.57 281.5 623.57 318.5 630.57"/><ellipse class="cls-3" cx="110.5" cy="676.07" rx="110" ry="62.5"/><ellipse class="cls-4" cx="110.5" cy="676.07" rx="48" ry="28.5"/><path class="cls-2" d="M505.73,463.57H396.27A22.77,22.77,0,0,0,373.5,440.8V396.33a22.77,22.77,0,0,0,22.77-22.76H505.73a22.77,22.77,0,0,0,22.77,22.76V440.8A22.77,22.77,0,0,0,505.73,463.57Z"/><path d="M414.75,420.91c.07,4.24-2.52,8.54-8.4,8.54h-6.6v-16.8h6.6C412.11,412.65,414.68,416.75,414.75,420.91Zm-11.86,5.49h3.46c3.81,0,5.33-2.78,5.25-5.52s-1.6-5.23-5.25-5.23h-3.46Z"/><path d="M430.92,422.27c0,4.35-2.76,7.52-7.39,7.52-4.3,0-7.37-2.57-7.37-7.32h3.12c0,2.88,1.4,4.34,4.25,4.34s4.23-2,4.23-4.54V415.6h-5.07v-3h8.23Z"/><path d="M438.75,429.45V412.67h12.07v3.05h-8.9v4.59h8.42v2.92h-8.42v6.22Z"/><path d="M456.17,412.65v13.87h8.64v2.93H453v-16.8Z"/><path d="M483.05,421.15c-.05,4.34-2.71,8.68-8.61,8.68s-8.65-4.24-8.65-8.66,2.84-8.86,8.65-8.86S483.1,416.75,483.05,421.15Zm-14.14.07c.08,2.76,1.56,5.71,5.53,5.71s5.44-3,5.49-5.74-1.53-6-5.49-6S468.84,418.39,468.91,421.22Z"/><path d="M502.78,429.45h-2.69L498,424.17l-1.77-5.3-1.75,5.35-2,5.23h-2.69l-6.17-16.8h3.55l4,12.12,4.08-12.12h2.07l4.2,12.12,3.84-12.12h3.55Z"/><ellipse class="cls-3" cx="601.5" cy="671.07" rx="110" ry="62.5"/><ellipse class="cls-4" cx="601.5" cy="671.07" rx="48" ry="28.5"/></svg>